<mxfile host="app.diagrams.net" agent="Mozilla/5.0 (Windows NT 10.0; Win64; x64) AppleWebKit/537.36 (KHTML, like Gecko) Chrome/134.0.0.0 Safari/537.36" version="26.1.0">
  <diagram name="Page-1" id="PiVfsbkn7j5E2B7G_CMX">
    <mxGraphModel dx="1221" dy="759" grid="1" gridSize="10" guides="1" tooltips="1" connect="1" arrows="1" fold="1" page="1" pageScale="1" pageWidth="1100" pageHeight="1700" math="0" shadow="0">
      <root>
        <mxCell id="0" />
        <mxCell id="1" parent="0" />
        <mxCell id="uGibnvh9rNLhKfY6fULm-1" value="User" style="shape=umlActor;verticalLabelPosition=bottom;verticalAlign=top;html=1;outlineConnect=0;" vertex="1" parent="1">
          <mxGeometry x="40" y="330" width="50" height="90" as="geometry" />
        </mxCell>
        <mxCell id="uGibnvh9rNLhKfY6fULm-3" value="" style="endArrow=none;html=1;rounded=0;" edge="1" parent="1" target="uGibnvh9rNLhKfY6fULm-4">
          <mxGeometry width="50" height="50" relative="1" as="geometry">
            <mxPoint x="60" y="330" as="sourcePoint" />
            <mxPoint x="200" y="160" as="targetPoint" />
          </mxGeometry>
        </mxCell>
        <mxCell id="uGibnvh9rNLhKfY6fULm-4" value="User Authentication" style="ellipse;whiteSpace=wrap;html=1;" vertex="1" parent="1">
          <mxGeometry x="190" y="110" width="120" height="80" as="geometry" />
        </mxCell>
        <mxCell id="uGibnvh9rNLhKfY6fULm-6" value="Manage Profile" style="ellipse;whiteSpace=wrap;html=1;" vertex="1" parent="1">
          <mxGeometry x="220" y="260" width="120" height="80" as="geometry" />
        </mxCell>
        <mxCell id="uGibnvh9rNLhKfY6fULm-7" value="" style="endArrow=none;html=1;rounded=0;entryX=0;entryY=0.5;entryDx=0;entryDy=0;exitX=0.75;exitY=0.1;exitDx=0;exitDy=0;exitPerimeter=0;" edge="1" parent="1" source="uGibnvh9rNLhKfY6fULm-1" target="uGibnvh9rNLhKfY6fULm-6">
          <mxGeometry width="50" height="50" relative="1" as="geometry">
            <mxPoint x="110" y="340" as="sourcePoint" />
            <mxPoint x="160" y="290" as="targetPoint" />
            <Array as="points" />
          </mxGeometry>
        </mxCell>
        <mxCell id="uGibnvh9rNLhKfY6fULm-9" value="Profile Features" style="ellipse;whiteSpace=wrap;html=1;" vertex="1" parent="1">
          <mxGeometry x="450" y="580" width="120" height="80" as="geometry" />
        </mxCell>
        <mxCell id="uGibnvh9rNLhKfY6fULm-10" value="" style="endArrow=none;html=1;rounded=0;exitX=1;exitY=0.3333333333333333;exitDx=0;exitDy=0;exitPerimeter=0;entryX=0.026;entryY=0.281;entryDx=0;entryDy=0;entryPerimeter=0;" edge="1" parent="1" source="uGibnvh9rNLhKfY6fULm-1" target="uGibnvh9rNLhKfY6fULm-9">
          <mxGeometry width="50" height="50" relative="1" as="geometry">
            <mxPoint x="110" y="370" as="sourcePoint" />
            <mxPoint x="160" y="320" as="targetPoint" />
          </mxGeometry>
        </mxCell>
        <mxCell id="uGibnvh9rNLhKfY6fULm-11" value="View Leaderboard" style="ellipse;whiteSpace=wrap;html=1;" vertex="1" parent="1">
          <mxGeometry x="250" y="640" width="120" height="80" as="geometry" />
        </mxCell>
        <mxCell id="uGibnvh9rNLhKfY6fULm-12" value="" style="endArrow=none;html=1;rounded=0;exitX=0.5;exitY=0.5;exitDx=0;exitDy=0;exitPerimeter=0;" edge="1" parent="1" source="uGibnvh9rNLhKfY6fULm-1" target="uGibnvh9rNLhKfY6fULm-11">
          <mxGeometry width="50" height="50" relative="1" as="geometry">
            <mxPoint x="110" y="460" as="sourcePoint" />
            <mxPoint x="160" y="410" as="targetPoint" />
          </mxGeometry>
        </mxCell>
        <mxCell id="uGibnvh9rNLhKfY6fULm-13" value="&amp;nbsp;Search Functionality" style="ellipse;whiteSpace=wrap;html=1;" vertex="1" parent="1">
          <mxGeometry x="70" y="670" width="120" height="80" as="geometry" />
        </mxCell>
        <mxCell id="uGibnvh9rNLhKfY6fULm-14" value="" style="endArrow=none;html=1;rounded=0;exitX=1;exitY=1;exitDx=0;exitDy=0;exitPerimeter=0;" edge="1" parent="1" source="uGibnvh9rNLhKfY6fULm-1" target="uGibnvh9rNLhKfY6fULm-13">
          <mxGeometry width="50" height="50" relative="1" as="geometry">
            <mxPoint x="70" y="530" as="sourcePoint" />
            <mxPoint x="120" y="480" as="targetPoint" />
          </mxGeometry>
        </mxCell>
        <mxCell id="uGibnvh9rNLhKfY6fULm-16" value="&amp;lt;&amp;lt;include&amp;gt;&amp;gt;" style="endArrow=open;endSize=12;dashed=1;html=1;rounded=0;" edge="1" parent="1" target="uGibnvh9rNLhKfY6fULm-4">
          <mxGeometry width="160" relative="1" as="geometry">
            <mxPoint x="410" y="70" as="sourcePoint" />
            <mxPoint x="420" y="190" as="targetPoint" />
          </mxGeometry>
        </mxCell>
        <mxCell id="uGibnvh9rNLhKfY6fULm-17" value="Sign In" style="ellipse;whiteSpace=wrap;html=1;" vertex="1" parent="1">
          <mxGeometry x="410" y="30" width="100" height="60" as="geometry" />
        </mxCell>
        <mxCell id="uGibnvh9rNLhKfY6fULm-18" value="&amp;lt;&amp;lt;include&amp;gt;&amp;gt;" style="endArrow=open;endSize=12;dashed=1;html=1;rounded=0;" edge="1" parent="1" target="uGibnvh9rNLhKfY6fULm-4">
          <mxGeometry width="160" relative="1" as="geometry">
            <mxPoint x="450" y="150" as="sourcePoint" />
            <mxPoint x="310" y="166" as="targetPoint" />
          </mxGeometry>
        </mxCell>
        <mxCell id="uGibnvh9rNLhKfY6fULm-19" value="Sign Up" style="ellipse;whiteSpace=wrap;html=1;" vertex="1" parent="1">
          <mxGeometry x="450" y="120" width="100" height="60" as="geometry" />
        </mxCell>
        <mxCell id="uGibnvh9rNLhKfY6fULm-20" value="&amp;lt;&amp;lt;extends&amp;gt;&amp;gt;" style="endArrow=open;endSize=12;dashed=1;html=1;rounded=0;" edge="1" parent="1" target="uGibnvh9rNLhKfY6fULm-17">
          <mxGeometry width="160" relative="1" as="geometry">
            <mxPoint x="640" y="60" as="sourcePoint" />
            <mxPoint x="480" y="20" as="targetPoint" />
          </mxGeometry>
        </mxCell>
        <mxCell id="uGibnvh9rNLhKfY6fULm-21" value="Forgot Password" style="ellipse;whiteSpace=wrap;html=1;" vertex="1" parent="1">
          <mxGeometry x="640" y="30" width="100" height="60" as="geometry" />
        </mxCell>
        <mxCell id="uGibnvh9rNLhKfY6fULm-22" value="&amp;lt;&amp;lt;include&amp;gt;&amp;gt;" style="endArrow=open;endSize=12;dashed=1;html=1;rounded=0;exitX=0.033;exitY=0.609;exitDx=0;exitDy=0;exitPerimeter=0;" edge="1" parent="1" source="uGibnvh9rNLhKfY6fULm-23" target="uGibnvh9rNLhKfY6fULm-6">
          <mxGeometry width="160" relative="1" as="geometry">
            <mxPoint x="452" y="240" as="sourcePoint" />
            <mxPoint x="340" y="296" as="targetPoint" />
          </mxGeometry>
        </mxCell>
        <mxCell id="uGibnvh9rNLhKfY6fULm-23" value="Privacy Options" style="ellipse;whiteSpace=wrap;html=1;" vertex="1" parent="1">
          <mxGeometry x="510" y="200" width="100" height="60" as="geometry" />
        </mxCell>
        <mxCell id="uGibnvh9rNLhKfY6fULm-24" value="&amp;lt;&amp;lt;include&amp;gt;&amp;gt;" style="endArrow=open;endSize=12;dashed=1;html=1;rounded=0;exitX=0.06;exitY=0.27;exitDx=0;exitDy=0;exitPerimeter=0;" edge="1" parent="1" source="uGibnvh9rNLhKfY6fULm-25" target="uGibnvh9rNLhKfY6fULm-6">
          <mxGeometry width="160" relative="1" as="geometry">
            <mxPoint x="462" y="280" as="sourcePoint" />
            <mxPoint x="343" y="291" as="targetPoint" />
          </mxGeometry>
        </mxCell>
        <mxCell id="uGibnvh9rNLhKfY6fULm-25" value="Change profile picture" style="ellipse;whiteSpace=wrap;html=1;" vertex="1" parent="1">
          <mxGeometry x="520" y="270" width="100" height="60" as="geometry" />
        </mxCell>
        <mxCell id="uGibnvh9rNLhKfY6fULm-26" value="&amp;lt;&amp;lt;include&amp;gt;&amp;gt;" style="endArrow=open;endSize=12;dashed=1;html=1;rounded=0;exitX=0.03;exitY=0.306;exitDx=0;exitDy=0;exitPerimeter=0;" edge="1" parent="1" source="uGibnvh9rNLhKfY6fULm-27" target="uGibnvh9rNLhKfY6fULm-6">
          <mxGeometry width="160" relative="1" as="geometry">
            <mxPoint x="460" y="350" as="sourcePoint" />
            <mxPoint x="350" y="306" as="targetPoint" />
          </mxGeometry>
        </mxCell>
        <mxCell id="uGibnvh9rNLhKfY6fULm-27" value="Change Password" style="ellipse;whiteSpace=wrap;html=1;" vertex="1" parent="1">
          <mxGeometry x="530" y="340" width="100" height="60" as="geometry" />
        </mxCell>
        <mxCell id="uGibnvh9rNLhKfY6fULm-30" value="View Your Courses" style="ellipse;whiteSpace=wrap;html=1;" vertex="1" parent="1">
          <mxGeometry x="510" y="420" width="100" height="60" as="geometry" />
        </mxCell>
        <mxCell id="uGibnvh9rNLhKfY6fULm-31" value="&amp;lt;&amp;lt;include&amp;gt;&amp;gt;" style="endArrow=open;endSize=12;dashed=1;html=1;rounded=0;entryX=1;entryY=1;entryDx=0;entryDy=0;" edge="1" parent="1" source="uGibnvh9rNLhKfY6fULm-30" target="uGibnvh9rNLhKfY6fULm-6">
          <mxGeometry width="160" relative="1" as="geometry">
            <mxPoint x="551" y="431" as="sourcePoint" />
            <mxPoint x="343" y="331" as="targetPoint" />
          </mxGeometry>
        </mxCell>
        <mxCell id="uGibnvh9rNLhKfY6fULm-34" value="&amp;lt;&amp;lt;include&amp;gt;&amp;gt;" style="endArrow=open;endSize=12;dashed=1;html=1;rounded=0;exitX=-0.008;exitY=0.672;exitDx=0;exitDy=0;exitPerimeter=0;" edge="1" parent="1" source="uGibnvh9rNLhKfY6fULm-37">
          <mxGeometry width="160" relative="1" as="geometry">
            <mxPoint x="710" y="580" as="sourcePoint" />
            <mxPoint x="560" y="598" as="targetPoint" />
          </mxGeometry>
        </mxCell>
        <mxCell id="uGibnvh9rNLhKfY6fULm-35" value="&amp;lt;&amp;lt;include&amp;gt;&amp;gt;" style="endArrow=open;endSize=12;dashed=1;html=1;rounded=0;entryX=1;entryY=1;entryDx=0;entryDy=0;exitX=0.053;exitY=0.311;exitDx=0;exitDy=0;exitPerimeter=0;" edge="1" parent="1" source="uGibnvh9rNLhKfY6fULm-38" target="uGibnvh9rNLhKfY6fULm-9">
          <mxGeometry width="160" relative="1" as="geometry">
            <mxPoint x="700" y="660" as="sourcePoint" />
            <mxPoint x="540" y="688" as="targetPoint" />
          </mxGeometry>
        </mxCell>
        <mxCell id="uGibnvh9rNLhKfY6fULm-36" value="&amp;lt;&amp;lt;include&amp;gt;&amp;gt;" style="endArrow=open;endSize=12;dashed=1;html=1;rounded=0;entryX=0.702;entryY=0.914;entryDx=0;entryDy=0;entryPerimeter=0;exitX=0.07;exitY=0.2;exitDx=0;exitDy=0;exitPerimeter=0;" edge="1" parent="1" source="uGibnvh9rNLhKfY6fULm-39" target="uGibnvh9rNLhKfY6fULm-9">
          <mxGeometry width="160" relative="1" as="geometry">
            <mxPoint x="630" y="760" as="sourcePoint" />
            <mxPoint x="540" y="670" as="targetPoint" />
          </mxGeometry>
        </mxCell>
        <mxCell id="uGibnvh9rNLhKfY6fULm-37" value="Track Achievements" style="ellipse;whiteSpace=wrap;html=1;" vertex="1" parent="1">
          <mxGeometry x="700" y="550" width="100" height="60" as="geometry" />
        </mxCell>
        <mxCell id="uGibnvh9rNLhKfY6fULm-38" value="View Course Progress" style="ellipse;whiteSpace=wrap;html=1;" vertex="1" parent="1">
          <mxGeometry x="700" y="640" width="100" height="60" as="geometry" />
        </mxCell>
        <mxCell id="uGibnvh9rNLhKfY6fULm-39" value="Manage Friends" style="ellipse;whiteSpace=wrap;html=1;" vertex="1" parent="1">
          <mxGeometry x="620" y="730" width="100" height="60" as="geometry" />
        </mxCell>
        <mxCell id="uGibnvh9rNLhKfY6fULm-41" value="View Friends Leaderboard" style="ellipse;whiteSpace=wrap;html=1;" vertex="1" parent="1">
          <mxGeometry x="450" y="790" width="100" height="60" as="geometry" />
        </mxCell>
        <mxCell id="uGibnvh9rNLhKfY6fULm-43" value="View Global Leaderboard" style="ellipse;whiteSpace=wrap;html=1;" vertex="1" parent="1">
          <mxGeometry x="310" y="810" width="100" height="60" as="geometry" />
        </mxCell>
        <mxCell id="uGibnvh9rNLhKfY6fULm-45" value="Search Users" style="ellipse;whiteSpace=wrap;html=1;" vertex="1" parent="1">
          <mxGeometry x="160" y="850" width="100" height="60" as="geometry" />
        </mxCell>
        <mxCell id="uGibnvh9rNLhKfY6fULm-52" value="Make your profile public" style="ellipse;whiteSpace=wrap;html=1;" vertex="1" parent="1">
          <mxGeometry x="760" y="150" width="90" height="50" as="geometry" />
        </mxCell>
        <mxCell id="uGibnvh9rNLhKfY6fULm-53" value="Make your&amp;nbsp; profile private" style="ellipse;whiteSpace=wrap;html=1;" vertex="1" parent="1">
          <mxGeometry x="760" y="220" width="90" height="50" as="geometry" />
        </mxCell>
        <mxCell id="uGibnvh9rNLhKfY6fULm-60" value="" style="endArrow=classic;html=1;rounded=0;entryX=0.623;entryY=1.011;entryDx=0;entryDy=0;entryPerimeter=0;" edge="1" parent="1" target="uGibnvh9rNLhKfY6fULm-13">
          <mxGeometry width="50" height="50" relative="1" as="geometry">
            <mxPoint x="198" y="850" as="sourcePoint" />
            <mxPoint x="140" y="760" as="targetPoint" />
          </mxGeometry>
        </mxCell>
        <mxCell id="uGibnvh9rNLhKfY6fULm-61" value="" style="endArrow=classic;html=1;rounded=0;entryX=0.623;entryY=1.011;entryDx=0;entryDy=0;entryPerimeter=0;exitX=0.3;exitY=0;exitDx=0;exitDy=0;exitPerimeter=0;" edge="1" parent="1" source="uGibnvh9rNLhKfY6fULm-43">
          <mxGeometry width="50" height="50" relative="1" as="geometry">
            <mxPoint x="370" y="824" as="sourcePoint" />
            <mxPoint x="317" y="720" as="targetPoint" />
          </mxGeometry>
        </mxCell>
        <mxCell id="uGibnvh9rNLhKfY6fULm-62" value="" style="endArrow=classic;html=1;rounded=0;" edge="1" parent="1" source="uGibnvh9rNLhKfY6fULm-41" target="uGibnvh9rNLhKfY6fULm-11">
          <mxGeometry width="50" height="50" relative="1" as="geometry">
            <mxPoint x="423" y="794" as="sourcePoint" />
            <mxPoint x="370" y="690" as="targetPoint" />
          </mxGeometry>
        </mxCell>
        <mxCell id="uGibnvh9rNLhKfY6fULm-63" value="" style="endArrow=classic;html=1;rounded=0;entryX=1;entryY=0.333;entryDx=0;entryDy=0;entryPerimeter=0;exitX=0.004;exitY=0.396;exitDx=0;exitDy=0;exitPerimeter=0;" edge="1" parent="1" source="uGibnvh9rNLhKfY6fULm-52" target="uGibnvh9rNLhKfY6fULm-23">
          <mxGeometry width="50" height="50" relative="1" as="geometry">
            <mxPoint x="640" y="180" as="sourcePoint" />
            <mxPoint x="690" y="130" as="targetPoint" />
          </mxGeometry>
        </mxCell>
        <mxCell id="uGibnvh9rNLhKfY6fULm-64" value="" style="endArrow=classic;html=1;rounded=0;entryX=0.998;entryY=0.654;entryDx=0;entryDy=0;entryPerimeter=0;exitX=0;exitY=0.5;exitDx=0;exitDy=0;" edge="1" parent="1" source="uGibnvh9rNLhKfY6fULm-53" target="uGibnvh9rNLhKfY6fULm-23">
          <mxGeometry width="50" height="50" relative="1" as="geometry">
            <mxPoint x="720" y="344" as="sourcePoint" />
            <mxPoint x="667" y="240" as="targetPoint" />
          </mxGeometry>
        </mxCell>
      </root>
    </mxGraphModel>
  </diagram>
</mxfile>
